<mxfile host="app.diagrams.net" modified="2021-07-29T01:47:23.324Z" agent="5.0 (Macintosh; Intel Mac OS X 10_15_7) AppleWebKit/537.36 (KHTML, like Gecko) Chrome/92.0.4515.107 Safari/537.36" etag="d7qzQ_Oy5_7utLKsnbCn" version="14.9.2" type="github">
  <diagram id="C5RBs43oDa-KdzZeNtuy" name="Page-1">
    <mxGraphModel dx="2887" dy="1530" grid="1" gridSize="10" guides="1" tooltips="1" connect="1" arrows="1" fold="1" page="1" pageScale="1" pageWidth="980" pageHeight="1390" math="0" shadow="0">
      <root>
        <mxCell id="WIyWlLk6GJQsqaUBKTNV-0" />
        <mxCell id="WIyWlLk6GJQsqaUBKTNV-1" parent="WIyWlLk6GJQsqaUBKTNV-0" />
        <mxCell id="WIyWlLk6GJQsqaUBKTNV-2" value="" style="rounded=0;html=1;jettySize=auto;orthogonalLoop=1;fontSize=11;endArrow=block;endFill=0;endSize=8;strokeWidth=1;shadow=0;labelBackgroundColor=none;edgeStyle=orthogonalEdgeStyle;" parent="WIyWlLk6GJQsqaUBKTNV-1" source="WIyWlLk6GJQsqaUBKTNV-3" edge="1">
          <mxGeometry relative="1" as="geometry">
            <mxPoint x="223" y="103" as="targetPoint" />
          </mxGeometry>
        </mxCell>
        <mxCell id="WIyWlLk6GJQsqaUBKTNV-3" value="_printf" style="rounded=1;whiteSpace=wrap;html=1;fontSize=12;glass=0;strokeWidth=1;shadow=0;" parent="WIyWlLk6GJQsqaUBKTNV-1" vertex="1">
          <mxGeometry x="163" y="13" width="120" height="40" as="geometry" />
        </mxCell>
        <mxCell id="aBi-KVUHRh--8irTxJPd-1" value="format[]&lt;br&gt;int i = 0&lt;br&gt;int count = 0" style="shape=parallelogram;perimeter=parallelogramPerimeter;whiteSpace=wrap;html=1;fixedSize=1;" vertex="1" parent="WIyWlLk6GJQsqaUBKTNV-1">
          <mxGeometry x="163" y="103" width="120" height="60" as="geometry" />
        </mxCell>
        <mxCell id="aBi-KVUHRh--8irTxJPd-3" value="" style="rounded=0;html=1;jettySize=auto;orthogonalLoop=1;fontSize=11;endArrow=block;endFill=0;endSize=8;strokeWidth=1;shadow=0;labelBackgroundColor=none;edgeStyle=orthogonalEdgeStyle;" edge="1" parent="WIyWlLk6GJQsqaUBKTNV-1">
          <mxGeometry relative="1" as="geometry">
            <mxPoint x="223" y="163" as="sourcePoint" />
            <mxPoint x="223" y="213" as="targetPoint" />
          </mxGeometry>
        </mxCell>
        <mxCell id="aBi-KVUHRh--8irTxJPd-4" value="format es falso&amp;nbsp;" style="rhombus;whiteSpace=wrap;html=1;" vertex="1" parent="WIyWlLk6GJQsqaUBKTNV-1">
          <mxGeometry x="163" y="213" width="120" height="80" as="geometry" />
        </mxCell>
        <mxCell id="aBi-KVUHRh--8irTxJPd-7" value="no" style="text;html=1;strokeColor=none;fillColor=none;align=center;verticalAlign=middle;whiteSpace=wrap;rounded=0;" vertex="1" parent="WIyWlLk6GJQsqaUBKTNV-1">
          <mxGeometry x="293" y="233" width="40" height="20" as="geometry" />
        </mxCell>
        <mxCell id="aBi-KVUHRh--8irTxJPd-10" value="si" style="text;html=1;strokeColor=none;fillColor=none;align=center;verticalAlign=middle;whiteSpace=wrap;rounded=0;" vertex="1" parent="WIyWlLk6GJQsqaUBKTNV-1">
          <mxGeometry x="103" y="233" width="40" height="20" as="geometry" />
        </mxCell>
        <mxCell id="aBi-KVUHRh--8irTxJPd-11" value="" style="endArrow=none;html=1;" edge="1" parent="WIyWlLk6GJQsqaUBKTNV-1">
          <mxGeometry width="50" height="50" relative="1" as="geometry">
            <mxPoint x="83" y="253" as="sourcePoint" />
            <mxPoint x="163" y="253" as="targetPoint" />
          </mxGeometry>
        </mxCell>
        <mxCell id="aBi-KVUHRh--8irTxJPd-12" value="" style="endArrow=none;html=1;" edge="1" parent="WIyWlLk6GJQsqaUBKTNV-1">
          <mxGeometry width="50" height="50" relative="1" as="geometry">
            <mxPoint x="363" y="253" as="sourcePoint" />
            <mxPoint x="283" y="253" as="targetPoint" />
          </mxGeometry>
        </mxCell>
        <mxCell id="aBi-KVUHRh--8irTxJPd-13" value="" style="endArrow=classic;html=1;" edge="1" parent="WIyWlLk6GJQsqaUBKTNV-1">
          <mxGeometry width="50" height="50" relative="1" as="geometry">
            <mxPoint x="83" y="253" as="sourcePoint" />
            <mxPoint x="83" y="313" as="targetPoint" />
          </mxGeometry>
        </mxCell>
        <mxCell id="aBi-KVUHRh--8irTxJPd-14" value="" style="endArrow=classic;html=1;" edge="1" parent="WIyWlLk6GJQsqaUBKTNV-1">
          <mxGeometry width="50" height="50" relative="1" as="geometry">
            <mxPoint x="363" y="253" as="sourcePoint" />
            <mxPoint x="363" y="313" as="targetPoint" />
          </mxGeometry>
        </mxCell>
        <mxCell id="aBi-KVUHRh--8irTxJPd-16" value="fin" style="ellipse;whiteSpace=wrap;html=1;" vertex="1" parent="WIyWlLk6GJQsqaUBKTNV-1">
          <mxGeometry x="23" y="313" width="120" height="80" as="geometry" />
        </mxCell>
        <mxCell id="aBi-KVUHRh--8irTxJPd-17" value="format[0] == %" style="rhombus;whiteSpace=wrap;html=1;" vertex="1" parent="WIyWlLk6GJQsqaUBKTNV-1">
          <mxGeometry x="303" y="313" width="120" height="80" as="geometry" />
        </mxCell>
        <mxCell id="aBi-KVUHRh--8irTxJPd-18" value="" style="endArrow=none;html=1;" edge="1" parent="WIyWlLk6GJQsqaUBKTNV-1">
          <mxGeometry width="50" height="50" relative="1" as="geometry">
            <mxPoint x="303" y="352.76" as="sourcePoint" />
            <mxPoint x="223" y="352.76" as="targetPoint" />
          </mxGeometry>
        </mxCell>
        <mxCell id="aBi-KVUHRh--8irTxJPd-19" value="" style="endArrow=none;html=1;" edge="1" parent="WIyWlLk6GJQsqaUBKTNV-1">
          <mxGeometry width="50" height="50" relative="1" as="geometry">
            <mxPoint x="503" y="352.76" as="sourcePoint" />
            <mxPoint x="423" y="352.76" as="targetPoint" />
          </mxGeometry>
        </mxCell>
        <mxCell id="aBi-KVUHRh--8irTxJPd-20" value="si" style="text;html=1;strokeColor=none;fillColor=none;align=center;verticalAlign=middle;whiteSpace=wrap;rounded=0;" vertex="1" parent="WIyWlLk6GJQsqaUBKTNV-1">
          <mxGeometry x="243" y="333" width="40" height="20" as="geometry" />
        </mxCell>
        <mxCell id="aBi-KVUHRh--8irTxJPd-21" value="no" style="text;html=1;strokeColor=none;fillColor=none;align=center;verticalAlign=middle;whiteSpace=wrap;rounded=0;" vertex="1" parent="WIyWlLk6GJQsqaUBKTNV-1">
          <mxGeometry x="443" y="333" width="40" height="20" as="geometry" />
        </mxCell>
        <mxCell id="aBi-KVUHRh--8irTxJPd-22" value="" style="endArrow=classic;html=1;" edge="1" parent="WIyWlLk6GJQsqaUBKTNV-1">
          <mxGeometry width="50" height="50" relative="1" as="geometry">
            <mxPoint x="503" y="353" as="sourcePoint" />
            <mxPoint x="503" y="520" as="targetPoint" />
          </mxGeometry>
        </mxCell>
        <mxCell id="aBi-KVUHRh--8irTxJPd-23" value="" style="endArrow=classic;html=1;" edge="1" parent="WIyWlLk6GJQsqaUBKTNV-1">
          <mxGeometry width="50" height="50" relative="1" as="geometry">
            <mxPoint x="223.76" y="353" as="sourcePoint" />
            <mxPoint x="223.76" y="413" as="targetPoint" />
          </mxGeometry>
        </mxCell>
        <mxCell id="aBi-KVUHRh--8irTxJPd-24" value="format[1] == \0" style="rhombus;whiteSpace=wrap;html=1;" vertex="1" parent="WIyWlLk6GJQsqaUBKTNV-1">
          <mxGeometry x="163" y="414" width="120" height="80" as="geometry" />
        </mxCell>
        <mxCell id="aBi-KVUHRh--8irTxJPd-25" value="" style="endArrow=none;html=1;" edge="1" parent="WIyWlLk6GJQsqaUBKTNV-1">
          <mxGeometry width="50" height="50" relative="1" as="geometry">
            <mxPoint x="163" y="453.58" as="sourcePoint" />
            <mxPoint x="83" y="453.58" as="targetPoint" />
          </mxGeometry>
        </mxCell>
        <mxCell id="aBi-KVUHRh--8irTxJPd-26" value="" style="endArrow=none;html=1;" edge="1" parent="WIyWlLk6GJQsqaUBKTNV-1">
          <mxGeometry width="50" height="50" relative="1" as="geometry">
            <mxPoint x="500" y="454" as="sourcePoint" />
            <mxPoint x="283" y="453.58" as="targetPoint" />
          </mxGeometry>
        </mxCell>
        <mxCell id="aBi-KVUHRh--8irTxJPd-27" value="" style="endArrow=classic;html=1;" edge="1" parent="WIyWlLk6GJQsqaUBKTNV-1">
          <mxGeometry width="50" height="50" relative="1" as="geometry">
            <mxPoint x="82.5800000000001" y="453" as="sourcePoint" />
            <mxPoint x="82.5800000000001" y="513" as="targetPoint" />
          </mxGeometry>
        </mxCell>
        <mxCell id="aBi-KVUHRh--8irTxJPd-29" value="si" style="text;html=1;strokeColor=none;fillColor=none;align=center;verticalAlign=middle;whiteSpace=wrap;rounded=0;" vertex="1" parent="WIyWlLk6GJQsqaUBKTNV-1">
          <mxGeometry x="103" y="430" width="40" height="20" as="geometry" />
        </mxCell>
        <mxCell id="aBi-KVUHRh--8irTxJPd-30" value="no" style="text;html=1;strokeColor=none;fillColor=none;align=center;verticalAlign=middle;whiteSpace=wrap;rounded=0;" vertex="1" parent="WIyWlLk6GJQsqaUBKTNV-1">
          <mxGeometry x="360" y="430" width="40" height="20" as="geometry" />
        </mxCell>
        <mxCell id="aBi-KVUHRh--8irTxJPd-31" value="fin" style="ellipse;whiteSpace=wrap;html=1;" vertex="1" parent="WIyWlLk6GJQsqaUBKTNV-1">
          <mxGeometry x="23" y="510" width="120" height="80" as="geometry" />
        </mxCell>
        <mxCell id="aBi-KVUHRh--8irTxJPd-32" value="i = 0" style="rounded=0;whiteSpace=wrap;html=1;" vertex="1" parent="WIyWlLk6GJQsqaUBKTNV-1">
          <mxGeometry x="443" y="520" width="120" height="60" as="geometry" />
        </mxCell>
        <mxCell id="aBi-KVUHRh--8irTxJPd-33" value="" style="endArrow=classic;html=1;" edge="1" parent="WIyWlLk6GJQsqaUBKTNV-1">
          <mxGeometry width="50" height="50" relative="1" as="geometry">
            <mxPoint x="502.58000000000015" y="580" as="sourcePoint" />
            <mxPoint x="502.58000000000015" y="640.0000000000001" as="targetPoint" />
          </mxGeometry>
        </mxCell>
        <mxCell id="aBi-KVUHRh--8irTxJPd-34" value="format[i] != \0" style="rhombus;whiteSpace=wrap;html=1;" vertex="1" parent="WIyWlLk6GJQsqaUBKTNV-1">
          <mxGeometry x="443" y="640" width="120" height="80" as="geometry" />
        </mxCell>
        <mxCell id="aBi-KVUHRh--8irTxJPd-35" value="" style="endArrow=classic;html=1;" edge="1" parent="WIyWlLk6GJQsqaUBKTNV-1">
          <mxGeometry width="50" height="50" relative="1" as="geometry">
            <mxPoint x="502.58000000000015" y="720" as="sourcePoint" />
            <mxPoint x="502.58000000000015" y="780.0000000000001" as="targetPoint" />
          </mxGeometry>
        </mxCell>
        <mxCell id="aBi-KVUHRh--8irTxJPd-36" value="format[i] == %" style="rhombus;whiteSpace=wrap;html=1;" vertex="1" parent="WIyWlLk6GJQsqaUBKTNV-1">
          <mxGeometry x="443" y="780" width="120" height="80" as="geometry" />
        </mxCell>
        <mxCell id="aBi-KVUHRh--8irTxJPd-37" value="" style="endArrow=none;html=1;" edge="1" parent="WIyWlLk6GJQsqaUBKTNV-1">
          <mxGeometry width="50" height="50" relative="1" as="geometry">
            <mxPoint x="770" y="820" as="sourcePoint" />
            <mxPoint x="563" y="819.58" as="targetPoint" />
          </mxGeometry>
        </mxCell>
        <mxCell id="aBi-KVUHRh--8irTxJPd-38" value="" style="endArrow=none;html=1;" edge="1" parent="WIyWlLk6GJQsqaUBKTNV-1">
          <mxGeometry width="50" height="50" relative="1" as="geometry">
            <mxPoint x="443" y="819.5799999999999" as="sourcePoint" />
            <mxPoint x="363" y="819.5799999999999" as="targetPoint" />
          </mxGeometry>
        </mxCell>
        <mxCell id="aBi-KVUHRh--8irTxJPd-39" value="si" style="text;html=1;strokeColor=none;fillColor=none;align=center;verticalAlign=middle;whiteSpace=wrap;rounded=0;" vertex="1" parent="WIyWlLk6GJQsqaUBKTNV-1">
          <mxGeometry x="383" y="800" width="40" height="20" as="geometry" />
        </mxCell>
        <mxCell id="aBi-KVUHRh--8irTxJPd-40" value="no" style="text;html=1;strokeColor=none;fillColor=none;align=center;verticalAlign=middle;whiteSpace=wrap;rounded=0;" vertex="1" parent="WIyWlLk6GJQsqaUBKTNV-1">
          <mxGeometry x="651" y="790" width="40" height="20" as="geometry" />
        </mxCell>
        <mxCell id="aBi-KVUHRh--8irTxJPd-42" value="" style="endArrow=classic;html=1;" edge="1" parent="WIyWlLk6GJQsqaUBKTNV-1">
          <mxGeometry width="50" height="50" relative="1" as="geometry">
            <mxPoint x="362.58000000000015" y="820" as="sourcePoint" />
            <mxPoint x="362.58000000000015" y="880" as="targetPoint" />
          </mxGeometry>
        </mxCell>
        <mxCell id="aBi-KVUHRh--8irTxJPd-43" value="" style="endArrow=classic;html=1;" edge="1" parent="WIyWlLk6GJQsqaUBKTNV-1">
          <mxGeometry width="50" height="50" relative="1" as="geometry">
            <mxPoint x="771.0000000000001" y="820" as="sourcePoint" />
            <mxPoint x="771.0000000000001" y="880" as="targetPoint" />
          </mxGeometry>
        </mxCell>
        <mxCell id="aBi-KVUHRh--8irTxJPd-44" value="format[i+1] == %" style="rhombus;whiteSpace=wrap;html=1;" vertex="1" parent="WIyWlLk6GJQsqaUBKTNV-1">
          <mxGeometry x="303" y="880" width="120" height="80" as="geometry" />
        </mxCell>
        <mxCell id="aBi-KVUHRh--8irTxJPd-45" value="format[i] != \0" style="rhombus;whiteSpace=wrap;html=1;" vertex="1" parent="WIyWlLk6GJQsqaUBKTNV-1">
          <mxGeometry x="443" y="980" width="120" height="80" as="geometry" />
        </mxCell>
        <mxCell id="aBi-KVUHRh--8irTxJPd-46" value="" style="endArrow=none;html=1;" edge="1" parent="WIyWlLk6GJQsqaUBKTNV-1">
          <mxGeometry width="50" height="50" relative="1" as="geometry">
            <mxPoint x="303" y="919.5799999999999" as="sourcePoint" />
            <mxPoint x="223" y="919.5799999999999" as="targetPoint" />
          </mxGeometry>
        </mxCell>
        <mxCell id="aBi-KVUHRh--8irTxJPd-47" value="" style="endArrow=none;html=1;" edge="1" parent="WIyWlLk6GJQsqaUBKTNV-1">
          <mxGeometry width="50" height="50" relative="1" as="geometry">
            <mxPoint x="502" y="919.5799999999999" as="sourcePoint" />
            <mxPoint x="422" y="919.5799999999999" as="targetPoint" />
          </mxGeometry>
        </mxCell>
        <mxCell id="aBi-KVUHRh--8irTxJPd-48" value="" style="endArrow=classic;html=1;" edge="1" parent="WIyWlLk6GJQsqaUBKTNV-1">
          <mxGeometry width="50" height="50" relative="1" as="geometry">
            <mxPoint x="222.57999999999998" y="920" as="sourcePoint" />
            <mxPoint x="222.57999999999998" y="980" as="targetPoint" />
          </mxGeometry>
        </mxCell>
        <mxCell id="aBi-KVUHRh--8irTxJPd-49" value="" style="endArrow=classic;html=1;" edge="1" parent="WIyWlLk6GJQsqaUBKTNV-1">
          <mxGeometry width="50" height="50" relative="1" as="geometry">
            <mxPoint x="502.58000000000004" y="919" as="sourcePoint" />
            <mxPoint x="502.58000000000004" y="979" as="targetPoint" />
          </mxGeometry>
        </mxCell>
        <mxCell id="aBi-KVUHRh--8irTxJPd-50" value="si" style="text;html=1;strokeColor=none;fillColor=none;align=center;verticalAlign=middle;whiteSpace=wrap;rounded=0;" vertex="1" parent="WIyWlLk6GJQsqaUBKTNV-1">
          <mxGeometry x="263" y="900" width="40" height="20" as="geometry" />
        </mxCell>
        <mxCell id="aBi-KVUHRh--8irTxJPd-51" value="no" style="text;html=1;strokeColor=none;fillColor=none;align=center;verticalAlign=middle;whiteSpace=wrap;rounded=0;" vertex="1" parent="WIyWlLk6GJQsqaUBKTNV-1">
          <mxGeometry x="450" y="900" width="40" height="20" as="geometry" />
        </mxCell>
        <mxCell id="aBi-KVUHRh--8irTxJPd-52" value="imprimir %" style="rounded=0;whiteSpace=wrap;html=1;" vertex="1" parent="WIyWlLk6GJQsqaUBKTNV-1">
          <mxGeometry x="163" y="980" width="120" height="60" as="geometry" />
        </mxCell>
        <mxCell id="aBi-KVUHRh--8irTxJPd-53" value="" style="endArrow=classic;html=1;" edge="1" parent="WIyWlLk6GJQsqaUBKTNV-1" target="aBi-KVUHRh--8irTxJPd-54">
          <mxGeometry width="50" height="50" relative="1" as="geometry">
            <mxPoint x="222.57999999999993" y="1040" as="sourcePoint" />
            <mxPoint x="222.57999999999993" y="1100" as="targetPoint" />
          </mxGeometry>
        </mxCell>
        <mxCell id="aBi-KVUHRh--8irTxJPd-54" value="count = count + 1&lt;br&gt;i = i +1" style="rounded=0;whiteSpace=wrap;html=1;" vertex="1" parent="WIyWlLk6GJQsqaUBKTNV-1">
          <mxGeometry x="162.57999999999993" y="1070" width="120" height="60" as="geometry" />
        </mxCell>
        <mxCell id="aBi-KVUHRh--8irTxJPd-55" value="" style="endArrow=classic;html=1;" edge="1" parent="WIyWlLk6GJQsqaUBKTNV-1">
          <mxGeometry width="50" height="50" relative="1" as="geometry">
            <mxPoint x="280" y="550" as="sourcePoint" />
            <mxPoint x="443" y="550" as="targetPoint" />
          </mxGeometry>
        </mxCell>
        <mxCell id="aBi-KVUHRh--8irTxJPd-56" value="" style="endArrow=none;html=1;" edge="1" parent="WIyWlLk6GJQsqaUBKTNV-1">
          <mxGeometry width="50" height="50" relative="1" as="geometry">
            <mxPoint x="120" y="1100" as="sourcePoint" />
            <mxPoint x="162.57999999999998" y="1100" as="targetPoint" />
          </mxGeometry>
        </mxCell>
        <mxCell id="aBi-KVUHRh--8irTxJPd-57" value="" style="endArrow=none;html=1;" edge="1" parent="WIyWlLk6GJQsqaUBKTNV-1">
          <mxGeometry width="50" height="50" relative="1" as="geometry">
            <mxPoint x="119" y="1100" as="sourcePoint" />
            <mxPoint x="119" y="760" as="targetPoint" />
          </mxGeometry>
        </mxCell>
        <mxCell id="aBi-KVUHRh--8irTxJPd-58" value="" style="endArrow=none;html=1;" edge="1" parent="WIyWlLk6GJQsqaUBKTNV-1">
          <mxGeometry width="50" height="50" relative="1" as="geometry">
            <mxPoint x="120" y="760" as="sourcePoint" />
            <mxPoint x="280" y="760" as="targetPoint" />
          </mxGeometry>
        </mxCell>
        <mxCell id="aBi-KVUHRh--8irTxJPd-59" value="" style="endArrow=none;html=1;" edge="1" parent="WIyWlLk6GJQsqaUBKTNV-1">
          <mxGeometry width="50" height="50" relative="1" as="geometry">
            <mxPoint x="280" y="760" as="sourcePoint" />
            <mxPoint x="280" y="550" as="targetPoint" />
          </mxGeometry>
        </mxCell>
        <mxCell id="aBi-KVUHRh--8irTxJPd-60" value="text_format(format, i+1)" style="rounded=0;whiteSpace=wrap;html=1;" vertex="1" parent="WIyWlLk6GJQsqaUBKTNV-1">
          <mxGeometry x="321" y="1080" width="120" height="60" as="geometry" />
        </mxCell>
        <mxCell id="aBi-KVUHRh--8irTxJPd-61" value="" style="endArrow=none;html=1;" edge="1" parent="WIyWlLk6GJQsqaUBKTNV-1">
          <mxGeometry width="50" height="50" relative="1" as="geometry">
            <mxPoint x="380" y="1020" as="sourcePoint" />
            <mxPoint x="443" y="1020" as="targetPoint" />
          </mxGeometry>
        </mxCell>
        <mxCell id="aBi-KVUHRh--8irTxJPd-62" value="" style="endArrow=classic;html=1;" edge="1" parent="WIyWlLk6GJQsqaUBKTNV-1">
          <mxGeometry width="50" height="50" relative="1" as="geometry">
            <mxPoint x="381" y="1020" as="sourcePoint" />
            <mxPoint x="381" y="1080" as="targetPoint" />
          </mxGeometry>
        </mxCell>
        <mxCell id="aBi-KVUHRh--8irTxJPd-63" value="" style="endArrow=none;html=1;" edge="1" parent="WIyWlLk6GJQsqaUBKTNV-1">
          <mxGeometry width="50" height="50" relative="1" as="geometry">
            <mxPoint x="563" y="1020" as="sourcePoint" />
            <mxPoint x="630" y="1020" as="targetPoint" />
          </mxGeometry>
        </mxCell>
        <mxCell id="aBi-KVUHRh--8irTxJPd-64" value="" style="endArrow=classic;html=1;" edge="1" parent="WIyWlLk6GJQsqaUBKTNV-1">
          <mxGeometry width="50" height="50" relative="1" as="geometry">
            <mxPoint x="630" y="1020" as="sourcePoint" />
            <mxPoint x="630" y="1080" as="targetPoint" />
          </mxGeometry>
        </mxCell>
        <mxCell id="aBi-KVUHRh--8irTxJPd-65" value="imprimir format[i]" style="rounded=0;whiteSpace=wrap;html=1;" vertex="1" parent="WIyWlLk6GJQsqaUBKTNV-1">
          <mxGeometry x="571" y="1080" width="120" height="60" as="geometry" />
        </mxCell>
        <mxCell id="aBi-KVUHRh--8irTxJPd-66" value="si" style="text;html=1;strokeColor=none;fillColor=none;align=center;verticalAlign=middle;whiteSpace=wrap;rounded=0;" vertex="1" parent="WIyWlLk6GJQsqaUBKTNV-1">
          <mxGeometry x="390" y="1000" width="40" height="20" as="geometry" />
        </mxCell>
        <mxCell id="aBi-KVUHRh--8irTxJPd-67" value="no" style="text;html=1;strokeColor=none;fillColor=none;align=center;verticalAlign=middle;whiteSpace=wrap;rounded=0;" vertex="1" parent="WIyWlLk6GJQsqaUBKTNV-1">
          <mxGeometry x="580" y="1000" width="40" height="20" as="geometry" />
        </mxCell>
        <mxCell id="aBi-KVUHRh--8irTxJPd-68" value="" style="endArrow=classic;html=1;" edge="1" parent="WIyWlLk6GJQsqaUBKTNV-1">
          <mxGeometry width="50" height="50" relative="1" as="geometry">
            <mxPoint x="630.66" y="1140" as="sourcePoint" />
            <mxPoint x="630.66" y="1200" as="targetPoint" />
          </mxGeometry>
        </mxCell>
        <mxCell id="aBi-KVUHRh--8irTxJPd-69" value="count = count + 1" style="rounded=0;whiteSpace=wrap;html=1;" vertex="1" parent="WIyWlLk6GJQsqaUBKTNV-1">
          <mxGeometry x="571" y="1200" width="120" height="60" as="geometry" />
        </mxCell>
        <mxCell id="aBi-KVUHRh--8irTxJPd-70" value="" style="endArrow=classic;html=1;" edge="1" parent="WIyWlLk6GJQsqaUBKTNV-1">
          <mxGeometry width="50" height="50" relative="1" as="geometry">
            <mxPoint x="380.66" y="1140" as="sourcePoint" />
            <mxPoint x="380.66" y="1200" as="targetPoint" />
          </mxGeometry>
        </mxCell>
        <mxCell id="aBi-KVUHRh--8irTxJPd-71" value="i = i + 1" style="rounded=0;whiteSpace=wrap;html=1;" vertex="1" parent="WIyWlLk6GJQsqaUBKTNV-1">
          <mxGeometry x="320" y="1200" width="120" height="60" as="geometry" />
        </mxCell>
        <mxCell id="aBi-KVUHRh--8irTxJPd-74" value="imprimir formart[i]" style="rounded=0;whiteSpace=wrap;html=1;" vertex="1" parent="WIyWlLk6GJQsqaUBKTNV-1">
          <mxGeometry x="711" y="880" width="120" height="60" as="geometry" />
        </mxCell>
        <mxCell id="aBi-KVUHRh--8irTxJPd-75" value="" style="endArrow=classic;html=1;" edge="1" parent="WIyWlLk6GJQsqaUBKTNV-1" target="aBi-KVUHRh--8irTxJPd-76">
          <mxGeometry width="50" height="50" relative="1" as="geometry">
            <mxPoint x="770.58" y="940" as="sourcePoint" />
            <mxPoint x="770.58" y="1000" as="targetPoint" />
          </mxGeometry>
        </mxCell>
        <mxCell id="aBi-KVUHRh--8irTxJPd-76" value="count = count + 1" style="rounded=0;whiteSpace=wrap;html=1;" vertex="1" parent="WIyWlLk6GJQsqaUBKTNV-1">
          <mxGeometry x="710.5799999999999" y="970" width="120" height="60" as="geometry" />
        </mxCell>
        <mxCell id="aBi-KVUHRh--8irTxJPd-77" value="" style="endArrow=none;html=1;" edge="1" parent="WIyWlLk6GJQsqaUBKTNV-1">
          <mxGeometry width="50" height="50" relative="1" as="geometry">
            <mxPoint x="691" y="1230" as="sourcePoint" />
            <mxPoint x="880" y="1230" as="targetPoint" />
          </mxGeometry>
        </mxCell>
        <mxCell id="aBi-KVUHRh--8irTxJPd-78" value="" style="endArrow=none;html=1;" edge="1" parent="WIyWlLk6GJQsqaUBKTNV-1">
          <mxGeometry width="50" height="50" relative="1" as="geometry">
            <mxPoint x="880" y="1230" as="sourcePoint" />
            <mxPoint x="880" y="550" as="targetPoint" />
          </mxGeometry>
        </mxCell>
        <mxCell id="aBi-KVUHRh--8irTxJPd-79" value="" style="endArrow=classic;html=1;entryX=1;entryY=0.5;entryDx=0;entryDy=0;" edge="1" parent="WIyWlLk6GJQsqaUBKTNV-1" target="aBi-KVUHRh--8irTxJPd-32">
          <mxGeometry width="50" height="50" relative="1" as="geometry">
            <mxPoint x="880" y="550" as="sourcePoint" />
            <mxPoint x="930" y="510" as="targetPoint" />
          </mxGeometry>
        </mxCell>
        <mxCell id="aBi-KVUHRh--8irTxJPd-80" value="" style="endArrow=none;html=1;" edge="1" parent="WIyWlLk6GJQsqaUBKTNV-1">
          <mxGeometry width="50" height="50" relative="1" as="geometry">
            <mxPoint x="831" y="1000" as="sourcePoint" />
            <mxPoint x="881" y="1000" as="targetPoint" />
          </mxGeometry>
        </mxCell>
      </root>
    </mxGraphModel>
  </diagram>
</mxfile>
